# xmcd
#
# Track frame offsets: 
#        150
#        20369
#        45557
#        68356
#        89930
#        114365
#        130015
#        153610
#        176183
#        190947
#        218820
#
# Disc length: 3155 seconds
#
# Revision: 0
# Processed by: cddbd v1.5.2PL0 Copyright (c) Steve Scherf et al.
# Submitted via: ExactAudioCopy v0.95a4
#
DISCID=950c510b
DTITLE=Mama's Cookin' - Mama's Cookin'
DYEAR=2007
DGENRE=Blues
TTITLE0=Run Up Quick
TTITLE1=What I Am
TTITLE2=Aquarius Skies
TTITLE3=Sanctified
TTITLE4=Lampin
TTITLE5=Anne Marie
TTITLE6=Tough Times
TTITLE7=Symbols and Signs
TTITLE8=Black Reign
TTITLE9=Postman
TTITLE10=One Of A Nerve
EXTD=
EXTT0=
EXTT1=
EXTT2=
EXTT3=
EXTT4=
EXTT5=
EXTT6=
EXTT7=
EXTT8=
EXTT9=
EXTT10=
PLAYORDER=
